<svg height="512pt" viewBox="0 0 512 512" width="512pt" xmlns="http://www.w3.org/2000/svg"><path d="m512 256c0 57.007812-18.640625 109.671875-50.15625 152.222656-11.585938 15.640625-24.917969 29.925782-39.703125 42.546875-44.714844 38.179688-102.726563 61.230469-166.140625 61.230469-36.726562 0-71.636719-7.730469-103.203125-21.660156-13.636719-6.007813-26.644531-13.175782-38.902344-21.378906-8.378906-5.589844-16.394531-11.671876-24.035156-18.191407-14.785156-12.621093-28.117187-26.90625-39.703125-42.546875-31.515625-42.550781-50.15625-95.214844-50.15625-152.222656s18.640625-109.671875 50.15625-152.222656c19.851562-26.800782 44.816406-49.589844 73.445312-66.921875 38.628907-23.398438 83.9375-36.855469 132.398438-36.855469.335938 0 .667969 0 1.003906.0117188 48.085938.1757812 93.035156 13.6015622 131.394532 36.8437502 28.628906 17.332031 53.59375 40.121093 73.445312 66.921875 31.515625 42.550781 50.15625 95.214844 50.15625 152.222656zm0 0" fill="#36435e"/><path d="m461.84375 74.898438v333.324218c-11.585938 15.640625-24.917969 29.925782-39.703125 42.546875-44.714844 38.179688-102.726563 61.230469-166.140625 61.230469-36.726562 0-71.636719-7.730469-103.203125-21.660156-13.636719-6.007813-26.644531-13.175782-38.902344-21.378906-8.378906-5.589844-16.394531-11.671876-24.035156-18.191407-14.785156-12.621093-28.117187-26.90625-39.703125-42.546875v-333.324218c0-21.011719 17.03125-38.042969 38.042969-38.042969h335.601562c21.011719 0 38.042969 17.03125 38.042969 38.042969zm0 0" fill="#73b287"/><path d="m422.140625 146.515625v304.253906c-44.714844 38.179688-102.726563 61.230469-166.140625 61.230469-36.726562 0-71.636719-7.730469-103.203125-21.660156-13.636719-6.007813-26.644531-13.175782-38.902344-21.378906-8.378906-5.589844-16.394531-11.671876-24.035156-18.191407v-304.253906c0-13.25 10.734375-23.980469 23.972656-23.980469h284.328125c13.238282 0 23.980469 10.730469 23.980469 23.980469zm0 0" fill="#e6e6e6"/><path d="m357.875 47.085938v67.308593c0 12.582031-10.1875 22.769531-22.769531 22.769531h-158.21875c-12.578125 0-22.765625-10.1875-22.765625-22.769531v-67.308593c0-12.582032 10.1875-22.769532 22.765625-22.769532h39.832031c7.1875-14.410156 22.078125-24.316406 39.277344-24.316406 2.675781 0 5.296875.242188 7.835937.699219 12.039063 2.164062 22.363281 9.25 28.832031 19.082031.082032.125.15625.238281.226563.367188.617187.949218 1.203125 1.929687 1.734375 2.933593.242188.441407.460938.859375.648438 1.234375h39.832031c12.582031 0 22.769531 10.1875 22.769531 22.769532zm0 0" fill="#f9a54b"/><path d="m357.875 47.085938v67.308593c0 12.582031-10.1875 22.769531-22.769531 22.769531h-142.542969c-12.582031 0-22.769531-10.1875-22.769531-22.769531v-67.308593c0-12.582032 10.1875-22.769532 22.769531-22.769532h24.15625c7.1875-14.410156 22.078125-24.316406 39.277344-24.316406 2.675781 0 5.296875.242188 7.835937.699219 12.039063 2.164062 22.363281 9.25 28.832031 19.082031.082032.125.15625.238281.226563.367188.671875 1.074218 1.253906 2.066406 1.734375 2.933593.242188.441407.460938.859375.648438 1.234375h39.832031c12.582031 0 22.769531 10.1875 22.769531 22.769532zm0 0" fill="#ffda73"/><path d="m271.148438 35.808594c0 8.367187-6.785157 15.152344-15.152344 15.152344-8.367188 0-15.148438-6.785157-15.148438-15.152344 0-8.367188 6.78125-15.148438 15.148438-15.148438 8.367187 0 15.152344 6.78125 15.152344 15.148438zm0 0" fill="#93bac1"/><g fill="#55627a"><path d="m190.171875 264.640625h-65.828125c-5.769531 0-10.449219-4.675781-10.449219-10.449219v-65.828125c0-5.769531 4.679688-10.449219 10.449219-10.449219h65.828125c5.769531 0 10.449219 4.679688 10.449219 10.449219v65.828125c0 5.773438-4.679688 10.449219-10.449219 10.449219zm-55.378906-20.898437h44.929687v-44.929688h-44.929687zm0 0"/><path d="m190.171875 377.492188h-65.828125c-5.769531 0-10.449219-4.679688-10.449219-10.449219v-65.832031c0-5.769532 4.679688-10.445313 10.449219-10.445313h65.828125c5.769531 0 10.449219 4.675781 10.449219 10.445313v65.832031c0 5.769531-4.679688 10.449219-10.449219 10.449219zm-55.378906-20.898438h44.929687v-44.933594h-44.929687zm0 0"/><path d="m190.171875 403.613281h-65.828125c-5.769531 0-10.449219 4.679688-10.449219 10.449219v54.898438c12.257813 8.203124 25.265625 15.371093 38.902344 21.378906h37.375c5.765625 0 10.449219-4.683594 10.449219-10.449219v-65.828125c0-5.769531-4.683594-10.449219-10.449219-10.449219zm-10.449219 65.828125h-44.929687v-44.929687h44.929687zm0 0"/></g><path d="m156.734375 368.085938c-3.476563 0-6.746094-1.734376-8.691406-4.652344l-33.4375-50.15625c-3.203125-4.800782-1.90625-11.289063 2.894531-14.488282 4.804688-3.203124 11.289062-1.90625 14.492188 2.898438l23.199218 34.796875 29.714844-62.734375c2.46875-5.214844 8.699219-7.4375 13.917969-4.96875 5.214843 2.472656 7.4375 8.703125 4.96875 13.917969l-37.617188 79.410156c-1.609375 3.402344-4.929687 5.671875-8.683593 5.949219-.253907.015625-.507813.027344-.757813.027344zm0 0" fill="#f76c59"/><path d="m156.734375 254.445312c-3.476563 0-6.746094-1.734374-8.691406-4.652343l-33.4375-50.15625c-3.203125-4.800781-1.90625-11.289063 2.894531-14.488281 4.804688-3.203126 11.289062-1.90625 14.492188 2.898437l23.199218 34.796875 29.714844-62.734375c2.46875-5.214844 8.699219-7.4375 13.917969-4.96875 5.214843 2.472656 7.4375 8.703125 4.96875 13.917969l-37.617188 79.410156c-1.609375 3.402344-4.929687 5.671875-8.683593 5.949219-.253907.019531-.507813.027343-.757813.027343zm0 0" fill="#f76c59"/><path d="m156.734375 481.726562c-3.476563 0-6.746094-1.734374-8.691406-4.652343l-33.4375-50.15625c-3.203125-4.800781-1.90625-11.289063 2.894531-14.488281 4.804688-3.203126 11.289062-1.90625 14.492188 2.898437l23.199218 34.796875 29.714844-62.730469c2.46875-5.21875 8.699219-7.441406 13.917969-4.972656 5.214843 2.472656 7.4375 8.703125 4.96875 13.917969l-37.617188 79.410156c-1.609375 3.402344-4.929687 5.675781-8.683593 5.949219-.253907.015625-.507813.027343-.757813.027343zm0 0" fill="#f76c59"/><path d="m222.8125 208.535156h168.589844v18.808594h-168.589844zm0 0" fill="#55627a"/><path d="m222.8125 320.875h168.589844v18.804688h-168.589844zm0 0" fill="#55627a"/><path d="m222.8125 433.210938h168.589844v18.808593h-168.589844zm0 0" fill="#55627a"/></svg>